<svg width="32" height="32" viewBox="0 0 32 32" fill="none" xmlns="http://www.w3.org/2000/svg">
<path d="M16 3.2C8.95995 3.2 3.19995 8.96 3.19995 16C3.19995 23.04 8.95995 28.8 16 28.8C23.0399 28.8 28.7999 23.04 28.7999 16C28.7999 8.96 23.0399 3.2 16 3.2ZM21.0464 22.4C20.8117 22.4 20.6943 22.2827 20.4597 22.1653C18.6997 21.1083 16.4704 20.5227 14.1237 20.5227C12.833 20.5227 11.425 20.7573 10.2517 20.992C10.017 20.992 9.78235 21.1093 9.66502 21.1093C9.19568 21.1093 8.84368 20.7573 8.84368 20.288C8.84368 19.8187 9.07835 19.4667 9.54768 19.4667C11.073 19.1147 12.5994 18.88 14.2421 18.88C16.9408 18.88 19.4048 19.584 21.5168 20.7573C21.7514 20.992 21.9861 21.1093 21.9861 21.5787C21.7493 22.1653 21.3973 22.4 21.0464 22.4ZM22.336 19.1157C22.1013 19.1157 21.8666 18.9984 21.632 18.8811C19.6373 17.5904 16.8202 16.8864 13.7706 16.8864C12.2453 16.8864 10.8362 17.1211 9.78128 17.3557C9.54662 17.4731 9.42928 17.4731 9.19462 17.4731C8.60795 17.4731 8.25488 17.0037 8.25488 16.5333C8.25488 15.9467 8.48955 15.712 9.07622 15.4763C10.4842 15.1243 11.8933 14.7723 13.888 14.7723C17.1733 14.7723 20.224 15.5936 22.8064 17.1189C23.1583 17.3536 23.393 17.7056 23.393 18.0587C23.2746 18.6453 22.9237 19.1157 22.336 19.1157ZM23.8613 15.36C23.6266 15.36 23.5093 15.2427 23.1573 15.1253C20.8106 13.8347 17.408 13.0133 14.1226 13.0133C12.4799 13.0133 10.72 13.248 9.19355 13.6C8.95888 13.6 8.84155 13.7173 8.48955 13.7173C7.78555 13.8357 7.31622 13.248 7.31622 12.5451C7.31622 11.8421 7.66822 11.488 8.13755 11.3717C10.016 10.9013 12.0106 10.6667 14.1226 10.6667C17.7599 10.6667 21.5146 11.488 24.449 13.0133C24.801 13.248 25.153 13.6 25.153 14.1867C25.0357 14.8907 24.5653 15.36 23.8613 15.36Z" fill="#57534E"/>
</svg>
