<svg width="32" height="32" viewBox="0 0 32 32" fill="none" xmlns="http://www.w3.org/2000/svg">
<path d="M29.3334 5.33202C28.2934 5.94935 26.2067 6.79068 24.98 7.03335C24.944 7.04268 24.9147 7.05468 24.88 7.06402C23.796 5.99468 22.3107 5.33202 20.6667 5.33202C17.3534 5.33202 14.6667 8.01868 14.6667 11.332C14.6667 11.5067 14.652 11.828 14.6667 11.9987C10.196 11.9987 6.79335 9.65735 4.35335 6.66535C4.08802 7.33202 3.97202 8.38535 3.97202 9.37468C3.97202 11.2427 5.43202 13.0773 7.70535 14.2147C7.28669 14.3227 6.82535 14.4 6.34535 14.4C5.57069 14.4 4.75069 14.196 4.00002 13.5773C4.00002 13.6 4.00002 13.6213 4.00002 13.6453C4.00002 16.256 6.77069 18.0333 9.23469 18.528C8.73469 18.8227 7.72669 18.852 7.23469 18.852C6.88802 18.852 5.66135 18.6933 5.33335 18.632C6.01869 20.772 8.49069 21.9747 10.8467 22.0173C9.00402 23.4627 7.72535 23.9987 3.95202 23.9987H2.66669C5.05069 25.5267 8.08669 26.6667 11.1294 26.6667C21.036 26.6667 26.6667 19.116 26.6667 11.9987C26.6667 11.884 26.664 11.644 26.66 11.4027C26.66 11.3787 26.6667 11.356 26.6667 11.332C26.6667 11.296 26.656 11.2613 26.656 11.2253C26.652 11.044 26.648 10.8747 26.644 10.7867C27.6974 10.0267 28.6107 9.07868 29.3334 7.99868C28.3667 8.42802 27.3294 8.71602 26.24 8.84668C27.352 8.18002 28.932 6.59068 29.3334 5.33202Z" fill="#57534E"/>
</svg>
