<svg width="90" height="100" viewBox="0 0 90 100" fill="none" xmlns="http://www.w3.org/2000/svg">
<path fill-rule="evenodd" clip-rule="evenodd" d="M39.8039 1.3825C43.0192 -0.460817 46.9808 -0.460848 50.1961 1.3825L84.8039 21.2229C88.0191 23.0663 90 26.473 90 30.1596V69.8404C89.9999 73.527 88.0191 76.9338 84.8039 78.7771L50.1961 98.6175C46.9808 100.461 43.0192 100.461 39.8039 98.6175L5.19613 78.7771C1.98081 76.9338 7.33184e-05 73.5271 0 69.8404V30.1596C0 26.4729 1.9808 23.0663 5.19613 21.2229L39.8039 1.3825ZM29.2648 67.8868H37.5299V46.5804L39.5962 49.4209L52.7881 67.8868H60.7352V32.1133H52.4701L52.5229 53.7354L50.0331 50.2627L37.2119 32.1133H29.2648V67.8868Z" fill="white"/>
</svg>
