<svg width="30" height="30" viewBox="0 0 30 30" fill="none" xmlns="http://www.w3.org/2000/svg">
<path d="M15 0C13.9511 0 13.4162 0.672358 13.0036 1.08538C12.6942 1.39515 12.4075 1.59433 12.3396 1.66295C12.2452 1.62768 11.9067 1.55295 11.4997 1.38393C10.9655 1.16206 10.2306 0.735045 9.25781 1.13839C8.2868 1.54111 8.05929 2.36667 7.83761 2.90458C7.66856 3.31479 7.4785 3.60858 7.4428 3.69559H7.44141C7.33841 3.69889 6.99761 3.75851 6.5625 3.75837C5.98263 3.75819 5.13795 3.65063 4.39453 4.39314C3.65037 5.13643 3.75828 5.98084 3.75837 6.56111C3.75844 6.9963 3.69887 7.33944 3.69559 7.4428C3.60858 7.4785 3.31479 7.66856 2.90458 7.83761C2.36667 8.05929 1.54111 8.2868 1.13839 9.25781C0.735001 10.2307 1.16206 10.9653 1.38393 11.4997C1.55294 11.9068 1.62768 12.2453 1.66295 12.3396H1.66155C1.59295 12.4075 1.39519 12.6942 1.08538 13.0036C0.672298 13.4162 0 13.9512 0 15C0 16.0489 0.672418 16.5838 1.08538 16.9964C1.3951 17.3058 1.59429 17.5934 1.66295 17.6618C1.62768 17.7561 1.55295 18.0947 1.38393 18.5017C1.16206 19.0359 0.735045 19.7694 1.13839 20.7422C1.54111 21.7132 2.36667 21.9407 2.90458 22.1624C3.31479 22.3314 3.60858 22.5215 3.69559 22.5572V22.5586C3.69889 22.6616 3.75851 23.0024 3.75837 23.4375C3.75819 24.0177 3.64946 24.8632 4.39314 25.6069C5.13682 26.3505 5.98235 26.2418 6.5625 26.2416C6.99761 26.2415 7.3398 26.3011 7.4428 26.3044C7.4785 26.3914 7.66856 26.6852 7.83761 27.0954C8.05929 27.6333 8.2868 28.4589 9.25781 28.8616C10.2307 29.265 10.9653 28.8379 11.4997 28.6161C11.9068 28.4471 12.2453 28.3723 12.3396 28.3371V28.3384C12.4075 28.4071 12.6942 28.6048 13.0036 28.9146C13.4162 29.3277 13.9512 30 15 30C16.0489 30 16.5838 29.3276 16.9964 28.9146C17.3058 28.6049 17.5934 28.4057 17.6618 28.3371C17.7561 28.3723 18.0947 28.4471 18.5017 28.6161C19.0359 28.8379 19.7694 29.265 20.7422 28.8616C21.7132 28.4589 21.9407 27.6333 22.1624 27.0954C22.3314 26.6852 22.5215 26.3914 22.5572 26.3044H22.5586C22.6616 26.3011 23.0024 26.2415 23.4375 26.2416C24.0177 26.2418 24.8632 26.3505 25.6069 25.6069C26.3505 24.8632 26.2418 24.0177 26.2416 23.4375C26.2415 23.0024 26.3011 22.6602 26.3044 22.5572C26.3914 22.5215 26.6852 22.3314 27.0954 22.1624C27.6333 21.9407 28.4589 21.7132 28.8616 20.7422C29.265 19.7693 28.8379 19.0347 28.6161 18.5003C28.4471 18.0932 28.3723 17.7547 28.3371 17.6604H28.3384C28.4071 17.5925 28.6048 17.3058 28.9146 16.9964C29.3277 16.5839 30 16.0488 30 15C30 13.9511 29.3276 13.4162 28.9146 13.0036C28.6049 12.6942 28.4057 12.4075 28.3371 12.3396C28.3723 12.2452 28.4471 11.9067 28.6161 11.4997C28.8379 10.9655 29.265 10.2306 28.8616 9.25781C28.4589 8.2868 27.6333 8.05929 27.0954 7.83761C26.6852 7.66856 26.3914 7.4785 26.3044 7.4428V7.44141C26.3011 7.33841 26.2415 6.99761 26.2416 6.5625C26.2418 5.98263 26.3494 5.13795 25.6069 4.39453C24.8636 3.65037 24.0192 3.75828 23.4389 3.75837C23.0037 3.75844 22.6606 3.69887 22.5572 3.69559C22.5215 3.60858 22.3314 3.31479 22.1624 2.90458C21.9407 2.36667 21.7132 1.54111 20.7422 1.13839C19.7693 0.735001 19.0347 1.16206 18.5003 1.38393C18.0932 1.55294 17.7547 1.62768 17.6604 1.66295V1.66155C17.5925 1.59295 17.3058 1.39519 16.9964 1.08538C16.5839 0.672298 16.0488 0 15 0ZM15 2.20006C15.0759 2.25839 15.2503 2.37055 15.4799 2.60045C15.8583 2.97933 16.266 3.59783 17.2321 3.78906C18.1926 3.97908 18.8228 3.5708 19.322 3.36356C19.6004 3.24798 19.7989 3.20906 19.8996 3.18359C19.9532 3.2731 20.066 3.4408 20.1814 3.7207C20.3863 4.21797 20.5324 4.94865 21.3491 5.49526C22.1645 6.04076 22.8999 5.90131 23.4389 5.90123C23.7411 5.90118 23.9399 5.94042 24.043 5.95564C24.0577 6.05726 24.0989 6.25645 24.0988 6.5625C24.0986 7.10164 23.9592 7.83552 24.5047 8.65095V8.65234C25.0513 9.46899 25.782 9.61371 26.2793 9.81864C26.559 9.93391 26.7268 10.0464 26.8164 10.1004C26.7909 10.2006 26.7522 10.3993 26.6364 10.678C26.4292 11.177 26.0209 11.8074 26.2109 12.7679C26.4022 13.7339 27.0206 14.1416 27.3996 14.5201C27.6289 14.7492 27.7415 14.9238 27.7999 15C27.7416 15.0759 27.6295 15.2503 27.3996 15.4799C27.0207 15.8583 26.4022 16.266 26.2109 17.2321C26.0209 18.1926 26.4292 18.8228 26.6364 19.322C26.752 19.6004 26.7909 19.7989 26.8164 19.8996C26.7269 19.9532 26.5592 20.066 26.2793 20.1814C25.782 20.3863 25.0513 20.5324 24.5047 21.3491C23.9592 22.1645 24.0986 22.8998 24.0988 23.4389C24.0989 23.7413 24.0582 23.94 24.043 24.043C23.94 24.0582 23.7413 24.0989 23.4389 24.0988C22.8998 24.0986 22.1645 23.9592 21.3491 24.5047C20.5324 25.0513 20.3863 25.782 20.1814 26.2793C20.0669 26.557 19.9552 26.7248 19.9009 26.815C19.8005 26.7895 19.6015 26.7519 19.3234 26.6364C18.8244 26.4292 18.1926 26.0209 17.2321 26.2109C16.2661 26.402 15.8586 27.0206 15.4799 27.3996C15.2507 27.629 15.0762 27.7415 15 27.7999C14.9241 27.7416 14.7497 27.6295 14.5201 27.3996C14.1417 27.0207 13.734 26.4022 12.7679 26.2109C11.8074 26.0209 11.1772 26.4292 10.678 26.6364C10.3996 26.752 10.2011 26.7909 10.1004 26.8164C10.0468 26.7269 9.93399 26.5592 9.81864 26.2793C9.61371 25.782 9.46759 25.0513 8.65095 24.5047C7.83552 23.9592 7.10024 24.0986 6.56111 24.0988C6.25867 24.0989 6.06003 24.0582 5.95703 24.043C5.9418 23.94 5.90114 23.7413 5.90123 23.4389C5.9014 22.8998 6.04076 22.1645 5.49526 21.3491C4.94868 20.5324 4.21797 20.3863 3.7207 20.1814C3.44299 20.0669 3.27516 19.9552 3.18499 19.9009C3.21046 19.8005 3.24806 19.6015 3.36356 19.3234C3.5708 18.8244 3.97907 18.1926 3.78906 17.2321C3.59801 16.2661 2.97945 15.8586 2.60045 15.4799C2.37101 15.2507 2.25852 15.0762 2.20006 15C2.25839 14.9241 2.37055 14.7497 2.60045 14.5201C2.97933 14.1417 3.59783 13.734 3.78906 12.7679C3.97908 11.8074 3.5708 11.1772 3.36356 10.678C3.24798 10.3996 3.20906 10.2011 3.18359 10.1004C3.2731 10.0468 3.4408 9.93399 3.7207 9.81864C4.21797 9.61371 4.94865 9.46759 5.49526 8.65095C6.04076 7.83552 5.90131 7.10012 5.90123 6.56111C5.90118 6.25888 5.94042 6.06007 5.95564 5.95703C6.05726 5.94233 6.25645 5.90114 6.5625 5.90123C7.10164 5.9014 7.83552 6.04076 8.65095 5.49526H8.65234C9.46899 4.94865 9.61371 4.21797 9.81864 3.7207C9.93391 3.44099 10.0464 3.27315 10.1004 3.18359C10.2006 3.20906 10.3993 3.24783 10.678 3.36356C11.1769 3.57082 11.8074 3.97907 12.7679 3.78906C13.7339 3.59784 14.1416 2.97939 14.5201 2.60045C14.7492 2.37105 14.9237 2.25853 15 2.20006ZM15 5C13.076 5 11.2801 5.55479 9.75725 6.49554C9.67485 6.54354 9.60289 6.60755 9.54563 6.68381C9.48836 6.76006 9.44694 6.84701 9.42381 6.93953C9.40067 7.03204 9.3963 7.12825 9.41094 7.22249C9.42559 7.31672 9.45895 7.40707 9.50906 7.4882C9.55918 7.56934 9.62503 7.63962 9.70274 7.69489C9.78045 7.75017 9.86844 7.78933 9.96152 7.81007C10.0546 7.8308 10.1509 7.83269 10.2447 7.81561C10.3385 7.79854 10.428 7.76285 10.5078 7.71066C11.8178 6.9014 13.3497 6.42857 15 6.42857C19.7426 6.42857 23.5714 10.2574 23.5714 15C23.5714 16.6503 23.0986 18.1822 22.2893 19.4922C22.2371 19.572 22.2015 19.6615 22.1844 19.7553C22.1673 19.8491 22.1692 19.9454 22.1899 20.0385C22.2107 20.1316 22.2498 20.2195 22.3051 20.2973C22.3604 20.375 22.4307 20.4408 22.5118 20.4909C22.5929 20.541 22.6833 20.5744 22.7775 20.5891C22.8717 20.6037 22.968 20.5993 23.0605 20.5762C23.153 20.5531 23.2399 20.5116 23.3162 20.4544C23.3924 20.3971 23.4565 20.3251 23.5045 20.2427C24.4452 18.7199 25 16.924 25 15C25 9.48544 20.5146 5 15 5ZM7.13588 9.40988C7.0078 9.40501 6.88076 9.43469 6.7681 9.4958C6.65544 9.55692 6.56129 9.64723 6.49554 9.75725C5.55479 11.2801 5 13.076 5 15C5 20.5146 9.48544 25 15 25C16.924 25 18.7199 24.4452 20.2427 23.5045C20.3251 23.4565 20.3971 23.3924 20.4544 23.3162C20.5116 23.2399 20.5531 23.153 20.5762 23.0605C20.5993 22.968 20.6037 22.8717 20.5891 22.7775C20.5744 22.6833 20.541 22.5929 20.4909 22.5118C20.4408 22.4307 20.375 22.3604 20.2973 22.3051C20.2195 22.2498 20.1316 22.2107 20.0385 22.1899C19.9454 22.1692 19.8491 22.1673 19.7553 22.1844C19.6615 22.2015 19.572 22.2371 19.4922 22.2893C18.1822 23.0986 16.6503 23.5714 15 23.5714C10.2574 23.5714 6.42857 19.7426 6.42857 15C6.42857 13.3497 6.9014 11.8178 7.71066 10.5078C7.77826 10.4018 7.81669 10.2798 7.82206 10.1542C7.82743 10.0286 7.79955 9.90378 7.74124 9.79239C7.68292 9.681 7.59624 9.58697 7.48995 9.5198C7.38366 9.45264 7.26152 9.41472 7.13588 9.40988Z" fill="white"/>
<path d="M10.9172 19.2857L12.2971 10.974H15.625C16.2365 10.974 16.7316 11.0646 17.1104 11.2459C17.4919 11.4272 17.7584 11.6788 17.9099 12.0008C18.0614 12.32 18.102 12.688 18.0317 13.1047C17.9749 13.4294 17.8599 13.7134 17.6867 13.957C17.5163 14.2005 17.3052 14.4007 17.0536 14.5576C16.802 14.7145 16.5287 14.8255 16.2338 14.8904L16.2176 14.9716C16.5314 14.9851 16.8142 15.0744 17.0658 15.2394C17.3174 15.4018 17.5054 15.6317 17.6299 15.9294C17.7544 16.227 17.7828 16.5801 17.7151 16.9886C17.6421 17.4296 17.4676 17.8233 17.1916 18.1696C16.9156 18.5132 16.5476 18.7851 16.0877 18.9854C15.6304 19.1856 15.0907 19.2857 14.4684 19.2857H10.9172ZM12.918 17.849H14.3507C14.8377 17.849 15.2097 17.7543 15.4667 17.5649C15.7238 17.3755 15.878 17.1252 15.9294 16.8141C15.9646 16.5841 15.9416 16.3812 15.8604 16.2053C15.782 16.0295 15.648 15.8915 15.4586 15.7914C15.2719 15.6913 15.0352 15.6412 14.7484 15.6412H13.2792L12.918 17.849ZM13.4822 14.4521H14.7849C15.023 14.4521 15.2435 14.4101 15.4465 14.3263C15.6521 14.2397 15.8212 14.1179 15.9538 13.961C16.089 13.8014 16.1743 13.6133 16.2094 13.3969C16.2581 13.0939 16.1905 12.8517 16.0065 12.6704C15.8252 12.4864 15.5412 12.3945 15.1542 12.3945H13.8231L13.4822 14.4521Z" fill="white"/>
</svg>
