<svg width="30" height="30" viewBox="0 0 30 30" fill="none" xmlns="http://www.w3.org/2000/svg">
<path d="M26.2646 5.10498L24.95 3.76831L22.771 5.91431C21.4929 5.00977 19.2554 3.75 16.6992 3.75C12.7808 3.75 10.675 5.81177 10.5872 5.89966L10.0269 6.45996L10.4846 7.10449C10.4883 7.10815 10.4956 7.11548 10.4993 7.1228C9.08936 7.82227 7.03491 9.38233 5.69092 12.7808L5.39429 13.5278L5.70923 13.7146C4.81567 14.9158 3.75 16.9263 3.75 19.6875V20.614L4.67651 20.625C4.69849 20.625 4.73145 20.625 4.77905 20.625C4.86694 20.625 5.00244 20.625 5.15991 20.6177C4.66919 22.2876 4.68384 24.1333 4.6875 24.3933L4.70581 25.2942L5.60669 25.3125C5.63965 25.3125 5.69458 25.3125 5.77148 25.3125C6.3208 25.3125 7.91748 25.2722 9.38233 24.8401C9.37134 25.0854 9.375 25.2576 9.375 25.3235L9.38599 26.25H10.3125C13.0737 26.25 15.0842 25.1843 16.2854 24.2871L16.4685 24.6057L17.2192 24.3091C20.6177 22.9651 22.1777 20.9106 22.8772 19.5007C22.8845 19.5044 22.8955 19.5117 22.8955 19.5154L23.573 19.9915L24.1296 19.3835C24.2175 19.2883 26.2537 17.0178 26.2537 13.125C26.2537 10.6897 25.0452 8.55103 24.0967 7.24365L26.2646 5.10498ZM11.9165 8.54736C12.7588 9.21387 13.96 9.91699 15.5054 10.1917C15.3662 10.6458 15.2673 11.1108 15.1904 11.5576C14.3628 12.0886 11.001 14.0112 7.77832 12.6819C9.15527 9.7998 11.0706 8.84033 11.9165 8.54736ZM15.1318 18.1421C14.4763 18.5156 12.6855 19.4275 10.3601 19.6399C10.5762 17.3328 11.4807 15.5383 11.8579 14.8755C13.103 14.6484 14.1907 14.2163 15 13.8171C15 13.938 15 14.0369 15 14.0808L15.0183 14.9817L15.9192 15C15.9631 15 16.062 15 16.1829 15C15.7837 15.8093 15.3552 16.9006 15.1318 18.1421ZM7.43408 14.5459C8.19946 14.8206 8.95752 14.9634 9.6936 15.0037C9.34204 15.7764 8.95752 16.8164 8.70483 18.0432C7.89185 18.4607 6.62476 18.6475 5.67993 18.7134C5.91065 16.7139 6.80054 15.3186 7.43408 14.5459ZM6.5918 23.4082C6.65405 22.4854 6.84082 21.2549 7.25464 20.4126C7.65015 20.3467 8.05664 20.2625 8.45215 20.1489C8.44482 20.3064 8.4375 20.4639 8.4375 20.625V21.5625H9.375C9.53613 21.5625 9.69727 21.5552 9.85474 21.5479C9.73755 21.9507 9.646 22.3645 9.58008 22.7637C8.74146 23.1702 7.50732 23.3459 6.5918 23.4082ZM11.9568 21.2952C13.1799 21.0425 14.2163 20.6616 14.9854 20.3137C15.0293 21.0461 15.1794 21.8042 15.4541 22.5659C14.6777 23.1995 13.2715 24.0894 11.2866 24.3201C11.3525 23.3752 11.5393 22.1082 11.9568 21.2952ZM17.3181 22.2217C15.9888 18.999 17.9114 15.6372 18.4424 14.8096C18.8892 14.7363 19.3579 14.6338 19.8083 14.4946C20.083 16.04 20.7861 17.2449 21.4526 18.0872C21.1597 18.9221 20.2039 20.8411 17.3181 22.2217ZM23.2764 17.3401C22.5623 16.5747 21.5625 15.1428 21.5625 13.125V11.4587L20.1379 12.323C19.314 12.8247 17.9114 13.0261 16.9043 13.0957C16.9702 12.0886 17.1716 10.6897 17.677 9.86206L18.5413 8.4375H16.875C14.8279 8.4375 13.3887 7.41211 12.6306 6.698C13.3923 6.22925 14.7546 5.625 16.6992 5.625C19.0942 5.625 21.2585 7.08984 22.1667 7.80396C22.9541 8.77441 24.375 10.8472 24.375 13.125C24.375 15.0696 23.7524 16.5198 23.2764 17.3401Z" fill="white"/>
</svg>
