<svg width="30" height="18" viewBox="0 0 30 18" fill="none" xmlns="http://www.w3.org/2000/svg">
<path d="M12.0968 10.4308C11.3979 8.81789 10.5376 5.53832 8.87097 5.53832C7.47312 5.53832 7.15054 7.4738 7.15054 8.33402C7.15054 9.94692 8.01075 11.1297 9.13979 11.9899L9.83871 12.4738C10 12.5276 10 12.7964 9.94624 12.9039L7.58065 16.3985C7.52688 16.5598 7.36559 16.6136 7.2043 16.5598C4.51613 15.162 2.84946 13.2265 2.36559 10.5921H0.268817C0.107527 10.5921 0 10.5383 0 10.2695L0 6.98993C0 6.77488 0.107527 6.66735 0.268817 6.66735H2.36559C3.11828 3.0652 5.43011 -0.0530784 9.35484 0.000685079C11.2366 0.000685079 12.7957 0.807137 14.2473 2.4738C15.5376 4.03294 16.3441 5.8609 17.043 7.63509C17.5806 9.19423 18.5484 11.7211 20.2688 11.7211C22.0968 11.7211 22.7419 10.1082 22.7419 8.81789C22.7419 7.25875 21.6129 5.80714 20.4301 5.16198L19.5699 4.73187C19.3548 4.67811 19.3011 4.46305 19.4624 4.30176L22.3656 0.592083C22.4731 0.484556 22.5806 0.430793 22.6882 0.484556C25.6989 1.4523 27.1505 4.30176 27.5806 6.93617H29.6237C29.7849 6.93617 30 7.15122 30 7.31251V10.5383C30 10.6458 29.8387 10.8609 29.6237 10.8609H27.5806C27.3118 13.1727 26.2903 14.8932 24.6237 16.076C22.7957 17.3663 20.5914 17.5276 19.4624 17.5276C15.5376 17.42 13.4409 13.4953 12.0968 10.4308Z" fill="white"/>
</svg>
