<svg width="17" height="30" viewBox="0 0 17 30" fill="none" xmlns="http://www.w3.org/2000/svg">
<path d="M8.54647 30C8.0838 30 7.70525 29.8423 7.41082 29.5268C7.11639 29.2324 6.96918 28.8644 6.96918 28.4227V26.2776C5.68632 26.1935 4.54016 25.9937 3.5307 25.6782C2.54226 25.3417 1.69053 24.9737 0.975491 24.5741C0.49179 24.3007 0.186848 23.9327 0.0606649 23.47C-0.0444876 23.0074 -0.0129418 22.5657 0.155302 22.1451C0.323546 21.7245 0.607458 21.4301 1.00704 21.2618C1.40662 21.0936 1.8798 21.1672 2.4266 21.4827C3.01545 21.8191 3.78306 22.1451 4.72943 22.4606C5.69684 22.755 6.85351 22.9022 8.19947 22.9022C9.77675 22.9022 10.9124 22.6288 11.6064 22.082C12.3004 21.5142 12.6474 20.8097 12.6474 19.9685C12.6474 19.2744 12.4056 18.7066 11.9219 18.265C11.4382 17.8233 10.5759 17.4658 9.33511 17.1924L5.99126 16.4669C2.18474 15.6467 0.281485 13.6488 0.281485 10.4732C0.281485 8.70662 0.880854 7.22398 2.07959 6.02524C3.29936 4.80547 4.92922 4.0694 6.96918 3.81704V1.57729C6.96918 1.13565 7.11639 0.767614 7.41082 0.473188C7.70525 0.157729 8.0838 0 8.54647 0C8.98811 0 9.35614 0.157729 9.65057 0.473188C9.96603 0.767614 10.1238 1.13565 10.1238 1.57729V3.78549C10.965 3.86961 11.8483 4.0694 12.7736 4.38486C13.72 4.70032 14.5402 5.13144 15.2342 5.67824C15.6337 5.99369 15.8651 6.36173 15.9282 6.78233C15.9913 7.18191 15.9177 7.56046 15.7074 7.91798C15.5181 8.25447 15.2131 8.4858 14.7925 8.61199C14.3929 8.71714 13.9198 8.61199 13.373 8.29653C12.7631 7.93901 12.0796 7.6551 11.3225 7.4448C10.5654 7.21346 9.66109 7.09779 8.60956 7.09779C7.26361 7.09779 6.20157 7.40273 5.42344 8.01262C4.66634 8.60147 4.28779 9.3796 4.28779 10.347C4.28779 11.062 4.51913 11.6404 4.9818 12.082C5.44447 12.5026 6.23311 12.8391 7.34773 13.0915L10.7862 13.8486C12.8051 14.2902 14.2878 14.9947 15.2342 15.9621C16.1805 16.9085 16.6537 18.1598 16.6537 19.7161C16.6537 21.4827 16.0438 22.9338 14.8241 24.0694C13.6253 25.184 12.0586 25.8885 10.1238 26.183V28.4227C10.1238 28.8644 9.97654 29.2324 9.68212 29.5268C9.38769 29.8423 9.00914 30 8.54647 30Z" fill="white"/>
</svg>
