<svg width="124" height="80" viewBox="0 0 124 80" fill="none" xmlns="http://www.w3.org/2000/svg">
<path d="M41.3607 76.3403C41.3607 76.3403 48.5937 80 51.8537 80C55.1136 80 56.438 78.6679 56.438 75.2864V5.94328C56.438 2.66423 55.1136 1.22965 51.8537 1.22965H45.6394C42.9907 1.22965 41.8701 2.35682 41.8701 6.14822C37.7951 2.04941 31.9883 0 26.589 0C9.67799 0 0 11.3742 0 31.2534C0 49.1857 8.65926 59.7402 23.4309 59.7402C28.6265 59.7402 33.5164 58.1006 36.6745 55.6414V71.6267C36.6745 75.0082 41.3607 76.3403 41.3607 76.3403ZM28.219 43.14C22.6159 43.14 20.0691 39.1436 20.0691 30.8436C20.0691 21.3138 23.3291 16.6002 30.0527 16.6002C32.7014 16.6002 34.7389 17.3175 36.6745 18.3422V40.2708C34.637 42.0128 31.2752 43.14 28.219 43.14Z" fill="white"/>
<path d="M71.7827 80C74.9408 80 82.2757 76.3403 82.2757 76.3403C82.2757 76.3403 86.9619 75.0082 86.9619 71.6267V57.5883C89.8143 58.8179 93.3799 59.7402 96.9455 59.7402C114.06 59.7402 123.636 48.4684 123.636 28.5892C123.636 10.5544 114.977 0 100.205 0C93.4818 0 87.5731 2.7667 84.6188 6.35316V5.94328C84.6188 2.66423 83.1925 1.22965 80.0345 1.22965H71.7827C68.6246 1.22965 67.1984 2.66423 67.1984 5.94328V75.2864C67.1984 78.6679 68.6246 80 71.7827 80ZM93.5836 43.14C90.9349 43.14 88.8975 42.4227 86.9619 41.2955V19.4694C88.9993 17.7274 92.3612 16.6002 95.4174 16.6002C101.02 16.6002 103.567 20.5965 103.567 28.9991C103.567 38.5288 100.307 43.14 93.5836 43.14Z" fill="white"/>
</svg>
