<svg width="20" height="30" viewBox="0 0 20 30" fill="none" xmlns="http://www.w3.org/2000/svg">
<g clip-path="url(#clip0_2_30)">
<path d="M18.7844 18.318C17.788 16.7915 17.0459 15.4558 16.8763 13.5053C16.7279 11.8092 17.0035 10.6855 17.3851 9.68902C17.6608 8.96817 17.5336 8.86216 16.8127 9.13778C15.7102 9.56181 14.4805 10.6007 13.8445 11.5547C13.3781 12.2544 13.1025 11.7668 13.3145 11.1731C13.9717 9.3286 14.2685 7.65368 13.6113 5.21552C13.0388 3.13778 11.5548 1.25086 9.49821 0.148383C8.75616 -0.254444 8.77737 0.233188 9.03178 0.890432C9.68903 2.56534 9.62542 4.30386 9.09539 6.08478C8.35334 8.54414 6.57242 10.4947 4.68549 12.4452C0.869239 16.4099 -1.97175 21.477 1.7173 26.1413C3.05298 27.8162 5.95758 30 9.94344 30C13.4841 30 15.901 28.4099 16.6007 27.8586C19.9081 25.2085 20.9894 21.7314 18.7844 18.318ZM10.0282 25.4417C6.93284 25.4417 5.40634 23.0671 5.10952 21.8374C5.06712 21.689 5.36394 21.6678 5.44874 21.795C5.70316 22.1767 6.3604 22.6431 6.72083 22.7279C6.93284 22.7703 7.06005 22.5795 6.93284 22.4099C5.89397 21.0954 5.89397 19.5689 6.44521 18.3392C7.10245 16.8763 9.13779 14.9258 10.0495 12.9752C10.4523 12.106 10.5159 11.1731 10.5159 10.7491C10.5159 10.5159 10.7703 10.4735 10.8763 10.7067C12.0848 13.4629 9.20139 15.901 10.7067 18.5512C10.8339 18.7844 11.0883 19.06 11.2791 19.2085C11.4699 19.3781 11.6396 19.1237 11.6184 18.9328C11.5123 18 11.788 16.6219 12.8268 15.7102C12.9752 15.583 13.1661 15.7314 13.1237 15.9646C12.636 18.5724 14.4593 18.9116 14.629 21.159C14.735 22.9187 12.848 25.4417 10.0282 25.4417Z" fill="white"/>
</g>
<defs>
<clipPath id="clip0_2_30">
<rect width="19.9293" height="30" fill="white"/>
</clipPath>
</defs>
</svg>
