<svg width="30" height="30" viewBox="0 0 30 30" fill="none" xmlns="http://www.w3.org/2000/svg">
<path d="M25.2942 3.74147C25.2603 3.74249 25.2265 3.74534 25.1929 3.75002H19.0625C18.9383 3.74826 18.8149 3.77121 18.6996 3.81754C18.5844 3.86386 18.4794 3.93264 18.391 4.01987C18.3025 4.1071 18.2322 4.21104 18.1843 4.32566C18.1363 4.44027 18.1116 4.56328 18.1116 4.68752C18.1116 4.81176 18.1363 4.93476 18.1843 5.04938C18.2322 5.164 18.3025 5.26794 18.391 5.35517C18.4794 5.4424 18.5844 5.51117 18.6996 5.5575C18.8149 5.60383 18.9383 5.62678 19.0625 5.62502H23.0493L16.5246 12.1497C16.4347 12.2361 16.3628 12.3395 16.3134 12.454C16.2639 12.5685 16.2377 12.6917 16.2365 12.8165C16.2352 12.9412 16.2588 13.0649 16.306 13.1804C16.3531 13.2959 16.4228 13.4008 16.511 13.489C16.5992 13.5772 16.7041 13.6469 16.8196 13.694C16.9351 13.7412 17.0588 13.7648 17.1835 13.7635C17.3083 13.7623 17.4315 13.7361 17.546 13.6866C17.6605 13.6372 17.7639 13.5653 17.8503 13.4754L24.375 6.9507V10.9375C24.3732 11.0617 24.3962 11.1851 24.4425 11.3004C24.4888 11.4157 24.5576 11.5206 24.6448 11.6091C24.7321 11.6975 24.836 11.7678 24.9506 11.8157C25.0652 11.8637 25.1882 11.8884 25.3125 11.8884C25.4367 11.8884 25.5597 11.8637 25.6744 11.8157C25.789 11.7678 25.8929 11.6975 25.9801 11.6091C26.0674 11.5206 26.1361 11.4157 26.1825 11.3004C26.2288 11.1851 26.2517 11.0617 26.25 10.9375V4.80593C26.2685 4.67104 26.2573 4.53376 26.2174 4.4036C26.1775 4.27345 26.1097 4.15356 26.0187 4.05226C25.9277 3.95096 25.8158 3.87069 25.6907 3.81702C25.5656 3.76335 25.4303 3.73757 25.2942 3.74147ZM12.7942 16.2415C12.5507 16.2486 12.3195 16.3501 12.1496 16.5247L5.62499 23.0493V19.0625C5.62675 18.9383 5.6038 18.8149 5.55747 18.6997C5.51115 18.5844 5.44237 18.4795 5.35514 18.391C5.26791 18.3025 5.16397 18.2323 5.04935 18.1843C4.93474 18.1364 4.81173 18.1117 4.68749 18.1117C4.56325 18.1117 4.44024 18.1364 4.32563 18.1843C4.21101 18.2323 4.10707 18.3025 4.01984 18.391C3.93261 18.4795 3.86384 18.5844 3.81751 18.6997C3.77118 18.8149 3.74823 18.9383 3.74999 19.0625V25.1941C3.73037 25.3375 3.74421 25.4835 3.79041 25.6206C3.83662 25.7577 3.91394 25.8823 4.01633 25.9846C4.11872 26.0869 4.24339 26.164 4.38058 26.2101C4.51777 26.2561 4.66376 26.2698 4.80712 26.25H10.9375C11.0617 26.2518 11.1851 26.2288 11.3003 26.1825C11.4156 26.1362 11.5206 26.0674 11.609 25.9802C11.6975 25.8929 11.7677 25.789 11.8157 25.6744C11.8637 25.5598 11.8883 25.4368 11.8883 25.3125C11.8883 25.1883 11.8637 25.0653 11.8157 24.9507C11.7677 24.836 11.6975 24.7321 11.609 24.6449C11.5206 24.5576 11.4156 24.4889 11.3003 24.4425C11.1851 24.3962 11.0617 24.3733 10.9375 24.375H6.95067L13.4753 17.8504C13.6106 17.7186 13.7029 17.5492 13.7403 17.3641C13.7776 17.179 13.7582 16.987 13.6846 16.8131C13.611 16.6393 13.4866 16.4917 13.3277 16.3897C13.1689 16.2877 12.9829 16.236 12.7942 16.2415Z" fill="white"/>
</svg>
