<svg width="117" height="110" viewBox="0 0 117 110" fill="none" xmlns="http://www.w3.org/2000/svg">
<path fill-rule="evenodd" clip-rule="evenodd" d="M51.3334 0C76.8456 5.81835e-05 102.666 7.55321 102.667 21.9995C102.667 22.6888 102.38 24.574 102.366 24.6473L100.665 37.4366C105.622 41.536 115.418 50.783 116.562 60.9685L116.556 60.9764C117.098 65.7577 115.669 70.2316 112.449 73.913C108.321 78.6207 102.256 81.1209 94.9154 81.1356H94.8273C87.4038 81.1356 78.2794 77.5777 70.689 73.4237L52.9658 62.6863L62.5351 60.3463C65.4262 59.6399 67.1954 56.7251 66.4891 53.8339C65.7826 50.943 62.8681 49.1744 59.9767 49.8813L37.772 55.3098C34.881 56.0161 33.1114 58.9295 33.818 61.8208L39.2479 84.0255C39.6014 85.4713 40.5068 86.6367 41.6852 87.352C42.8636 88.0673 44.3146 88.3329 45.7602 87.9795C48.6513 87.273 50.4212 84.3586 49.7142 81.4671L47.3742 71.8978C51.2788 74.3113 55.1735 76.7583 59.0112 79.2507C63.5505 82.1987 78.9427 91.4387 93.4185 92.0255C92.5972 104.353 71.2506 110 51.3334 110C31.0202 110 9.16678 104.147 9.16678 91.2995L0.301219 24.6473C0.286552 24.574 0 22.6888 0 21.9995C0.000523489 7.55315 25.8211 0 51.3334 0ZM96.3307 70.0261C99.7771 69.7767 102.388 68.7058 104.177 66.66L104.185 66.6522C105.38 65.2884 105.826 63.9172 105.636 62.2089C105.24 58.6889 102.285 54.5006 98.8825 50.8559L96.3307 70.0261ZM51.3334 11.0004C25.3223 11.0004 11.2427 18.6852 11.0372 21.9192L11.0662 22.1468C11.4261 25.4102 25.4695 32.9999 51.3334 32.9999C77.1973 32.9998 91.2409 25.4175 91.6007 22.1468L91.6296 21.9192C91.4243 18.6853 77.3444 11.0005 51.3334 11.0004Z" fill="white"/>
</svg>
