<svg width="53" height="59" viewBox="0 0 53 59" fill="none" xmlns="http://www.w3.org/2000/svg">
<path d="M3.88086 4.70956C18.3065 -1.56986 34.6934 -1.56984 49.1191 4.70956L53 6.39901V32.5006C53 47.1358 41.1354 59.0006 26.5 59.0006C11.8647 59.0005 0 47.1358 0 32.5006V6.39901L3.88086 4.70956ZM27.0146 11.15C24.2032 11.15 21.7691 11.6644 19.7119 12.693C17.689 13.7216 16.1284 15.1103 15.0312 16.859C13.9343 18.5732 13.3857 20.4931 13.3857 22.6187C13.3857 24.5387 13.7633 26.2528 14.5176 27.7613C15.2719 29.2356 16.5403 30.5051 18.3232 31.568C20.1061 32.5965 22.5064 33.4536 25.5234 34.1393C26.9631 34.4478 28.0602 34.773 28.8145 35.1158C29.5688 35.4244 30.0666 35.7505 30.3066 36.0934C30.5808 36.4361 30.7177 36.8304 30.7178 37.276C30.7178 37.9274 30.4266 38.4767 29.8438 38.9225C29.2952 39.3682 28.4547 39.5904 27.3232 39.5904C25.8491 39.5904 24.392 39.2137 22.9521 38.4596C21.5464 37.671 20.3973 36.6422 19.5059 35.3736L12.5117 39.9508C13.4374 41.6649 14.5858 43.1219 15.957 44.3219C17.3628 45.5219 18.9574 46.4478 20.7402 47.0992C22.5574 47.7164 24.5635 48.025 26.7578 48.025C29.6035 48.025 32.0552 47.5455 34.1123 46.5855C36.1695 45.6255 37.7466 44.3046 38.8438 42.6246C39.9408 40.9104 40.4893 38.973 40.4893 36.8131C40.4892 34.6532 40.0437 32.8361 39.1523 31.3619C38.2952 29.8533 36.9403 28.6013 35.0889 27.607C33.2717 26.5785 30.9228 25.7389 28.043 25.0875C25.9519 24.6076 24.5462 24.162 23.8262 23.7506C23.1404 23.3391 22.7979 22.7898 22.7979 22.1041C22.798 21.4185 23.1066 20.8874 23.7236 20.5103C24.3751 20.099 25.2321 19.8932 26.2949 19.8932C27.4948 19.8932 28.7461 20.133 30.0488 20.6129C31.386 21.0586 32.4497 21.8127 33.2383 22.8756L40.2324 17.8355C39.0324 15.8812 37.3175 14.2866 35.0889 13.0523C32.8603 11.7839 30.1688 11.15 27.0146 11.15Z" fill="white"/>
</svg>
