<svg width="30" height="30" viewBox="0 0 30 30" fill="none" xmlns="http://www.w3.org/2000/svg">
<path d="M6.14286 25.7571L8.28571 22.2857L9.48571 22.9286C11.5857 23.8714 13.4286 24.3429 14.9714 24.3429C15.7429 24.3429 16.2143 24.3 16.4286 24.1714C17.4143 23.9143 18.1 23.3571 18.5286 22.5L18.5714 22.4143C18.7857 22.0286 18.8714 21.5571 18.8714 20.9571C18.8714 20.6571 18.7857 20.3143 18.6143 19.8857L18.5286 19.7143C17.9714 18.5571 16.7286 17.7857 14.4571 17.0571L14.0286 16.9286L13.9 16.8857C10.4286 15.8571 8.2 14.2286 7.12857 11.9571C6.7 11.1 6.48571 10.1571 6.48571 9.12857C6.48571 8.05714 6.7 7.02857 7.12857 5.95714L7.21429 5.78571C8.2 3.85714 9.74286 2.52857 11.8857 1.88571C13.4714 1.67143 14.3286 1.54286 14.4571 1.54286C17.3714 1.54286 20.7571 2.74286 24.5714 5.1L25.3857 3.77143C21.2286 1.24286 17.6286 0 14.5 0C13.1714 0 12.1857 0.128571 11.5 0.428571C8.97143 1.11429 7.08571 2.65714 5.84286 5.1L5.71429 5.4C5.2 6.64286 4.94286 7.88571 4.94286 9.12857C4.94286 10.4571 5.2 11.6143 5.71429 12.6429C7.04286 15.3 9.61429 17.1857 13.4714 18.3429L13.9857 18.5143C15.7429 19.0714 16.7714 19.6714 17.1571 20.3571L17.2 20.4429C17.2857 20.5714 17.3286 20.7429 17.3286 20.9571C17.3286 21.3429 17.2857 21.6 17.1571 21.8143C16.8571 22.5 16.1286 22.8429 14.9714 22.8429C13.1286 22.8429 10.4714 21.9 8.41429 20.5714L7.77143 20.1857L4 26.2714L4.64286 26.6571C7.68571 28.7143 11.7143 30 14.9714 30C16.0429 30 17.0286 29.8714 17.9286 29.6143C20.4571 28.8857 22.3429 27.3429 23.5857 24.9L23.7571 24.6C24.2714 23.2714 24.5286 22.0286 24.5286 20.8714C24.5286 19.8857 24.1857 18.6 23.5429 16.9714C22.3857 14.6571 19.9 12.9 16.1286 11.7L15.5286 11.5286C14.3714 11.1429 13.5571 10.8 13.1286 10.4571C12.6571 10.0714 12.3143 9.77143 12.1857 9.55714L12.1 9.08571C12.1 8.18571 12.5286 7.54286 13.0429 7.32857C13.3 7.2 13.7714 7.15714 14.4571 7.15714C16.3 7.15714 18.9571 8.1 21.0143 9.42857L21.6571 9.81429L23.9714 6.12857L23.2857 5.74286C20.6714 4.02857 17.1143 2.82857 14.5 2.82857C13.3429 2.82857 12.6143 2.91429 12.2286 3.12857C10.4714 3.64286 9.14286 4.75714 8.28571 6.42857C7.9 7.15714 7.72857 8.01429 7.72857 9.08571C7.72857 9.9 7.9 10.6714 8.24286 11.4C9.14286 13.3286 11.1571 14.7429 14.2857 15.6857L14.8429 15.8571L16 16.2857C16.6 16.5 17.2857 16.8429 18.1 17.3143C19.4714 18.1286 20.1571 19.2857 20.1571 20.8286C20.1571 21.6857 19.9429 22.5 19.5571 23.2286C18.6571 24.8143 17.1143 25.6286 14.9714 25.6286C13.5571 25.6286 11.5 25.0714 8.8 24L8.07143 25.2429L8.02857 25.3286C10.4714 26.5714 12.7857 27.1714 15.0143 27.1714C17.5429 27.1714 19.6857 26.1429 20.8429 24.1714C21.4 23.1857 21.7 22.0714 21.7 20.7857C21.7 18.2571 20.4143 16.6714 18.7 15.7714C17.8 15.3 16.6857 14.8286 15.2714 14.3571L14.7143 14.1857C12.0143 13.3714 10.3429 12.2571 9.65714 10.7571C9.4 10.2429 9.27143 9.68571 9.27143 9.04286C9.27143 8.22857 9.4 7.58571 9.7 7.02857C10.3857 5.78571 11.3714 4.97143 12.6571 4.58571L14.3714 4.37143C16.6429 4.37143 19.1286 5.14286 21.8286 6.64286L21.1429 7.71429C18.3571 6.34286 16.1286 5.65714 14.5 5.65714C13.6857 5.65714 13.2143 5.7 13 5.82857C12.0571 6.08571 11.3714 6.64286 10.9 7.54286L10.8571 7.62857C10.6429 8.01429 10.5571 8.52857 10.5571 9.17143C10.5571 9.64286 10.6429 9.98571 10.7714 10.2C11.3286 11.3571 12.7857 12.3 15.1 12.9857L15.6571 13.1571L16.7286 13.5C16.9429 13.5857 17.6286 13.8857 18.7857 14.4429C20.4571 15.3857 21.6571 16.5857 22.3429 18C22.7714 18.8571 22.9857 19.8 22.9857 20.8286C22.9857 22.0714 22.7714 23.1429 22.3 24.0429L22.2143 24.2143C21.2286 26.1429 19.6857 27.4714 17.5429 28.1143C15.9571 28.3286 15.1 28.4571 14.9714 28.4571C12.8714 28.4571 10.0429 27.6429 7.34286 26.4L6.14286 25.7571Z" fill="white"/>
</svg>
