<svg width="22" height="30" viewBox="0 0 22 30" fill="none" xmlns="http://www.w3.org/2000/svg">
<path d="M2.14286 25.7571L4.28571 22.2857L5.48571 22.9286C7.58571 23.8714 9.42857 24.3429 10.9714 24.3429C11.7429 24.3429 12.2143 24.3 12.4286 24.1714C13.4143 23.9143 14.1 23.3571 14.5286 22.5L14.5714 22.4143C14.7857 22.0286 14.8714 21.5571 14.8714 20.9571C14.8714 20.6571 14.7857 20.3143 14.6143 19.8857L14.5286 19.7143C13.9714 18.5571 12.7286 17.7857 10.4571 17.0571L10.0286 16.9286L9.9 16.8857C6.42857 15.8571 4.2 14.2286 3.12857 11.9571C2.7 11.1 2.48571 10.1571 2.48571 9.12857C2.48571 8.05714 2.7 7.02857 3.12857 5.95714L3.21429 5.78571C4.2 3.85714 5.74286 2.52857 7.88571 1.88571C9.47143 1.67143 10.3286 1.54286 10.4571 1.54286C13.3714 1.54286 16.7571 2.74286 20.5714 5.1L21.3857 3.77143C17.2286 1.24286 13.6286 0 10.5 0C9.17143 0 8.18571 0.128571 7.5 0.428571C4.97143 1.11429 3.08571 2.65714 1.84286 5.1L1.71429 5.4C1.2 6.64286 0.942857 7.88571 0.942857 9.12857C0.942857 10.4571 1.2 11.6143 1.71429 12.6429C3.04286 15.3 5.61429 17.1857 9.47143 18.3429L9.98571 18.5143C11.7429 19.0714 12.7714 19.6714 13.1571 20.3571L13.2 20.4429C13.2857 20.5714 13.3286 20.7429 13.3286 20.9571C13.3286 21.3429 13.2857 21.6 13.1571 21.8143C12.8571 22.5 12.1286 22.8429 10.9714 22.8429C9.12857 22.8429 6.47143 21.9 4.41429 20.5714L3.77143 20.1857L0 26.2714L0.642857 26.6571C3.68571 28.7143 7.71429 30 10.9714 30C12.0429 30 13.0286 29.8714 13.9286 29.6143C16.4571 28.8857 18.3429 27.3429 19.5857 24.9L19.7571 24.6C20.2714 23.2714 20.5286 22.0286 20.5286 20.8714C20.5286 19.8857 20.1857 18.6 19.5429 16.9714C18.3857 14.6571 15.9 12.9 12.1286 11.7L11.5286 11.5286C10.3714 11.1429 9.55714 10.8 9.12857 10.4571C8.65714 10.0714 8.31429 9.77143 8.18571 9.55714L8.1 9.08571C8.1 8.18571 8.52857 7.54286 9.04286 7.32857C9.3 7.2 9.77143 7.15714 10.4571 7.15714C12.3 7.15714 14.9571 8.1 17.0143 9.42857L17.6571 9.81429L19.9714 6.12857L19.2857 5.74286C16.6714 4.02857 13.1143 2.82857 10.5 2.82857C9.34286 2.82857 8.61429 2.91429 8.22857 3.12857C6.47143 3.64286 5.14286 4.75714 4.28571 6.42857C3.9 7.15714 3.72857 8.01429 3.72857 9.08571C3.72857 9.9 3.9 10.6714 4.24286 11.4C5.14286 13.3286 7.15714 14.7429 10.2857 15.6857L10.8429 15.8571L12 16.2857C12.6 16.5 13.2857 16.8429 14.1 17.3143C15.4714 18.1286 16.1571 19.2857 16.1571 20.8286C16.1571 21.6857 15.9429 22.5 15.5571 23.2286C14.6571 24.8143 13.1143 25.6286 10.9714 25.6286C9.55714 25.6286 7.5 25.0714 4.8 24L4.07143 25.2429L4.02857 25.3286C6.47143 26.5714 8.78571 27.1714 11.0143 27.1714C13.5429 27.1714 15.6857 26.1429 16.8429 24.1714C17.4 23.1857 17.7 22.0714 17.7 20.7857C17.7 18.2571 16.4143 16.6714 14.7 15.7714C13.8 15.3 12.6857 14.8286 11.2714 14.3571L10.7143 14.1857C8.01429 13.3714 6.34286 12.2571 5.65714 10.7571C5.4 10.2429 5.27143 9.68571 5.27143 9.04286C5.27143 8.22857 5.4 7.58571 5.7 7.02857C6.38571 5.78571 7.37143 4.97143 8.65714 4.58571L10.3714 4.37143C12.6429 4.37143 15.1286 5.14286 17.8286 6.64286L17.1429 7.71429C14.3571 6.34286 12.1286 5.65714 10.5 5.65714C9.68571 5.65714 9.21428 5.7 9 5.82857C8.05714 6.08571 7.37143 6.64286 6.9 7.54286L6.85714 7.62857C6.64286 8.01429 6.55714 8.52857 6.55714 9.17143C6.55714 9.64286 6.64286 9.98571 6.77143 10.2C7.32857 11.3571 8.78571 12.3 11.1 12.9857L11.6571 13.1571L12.7286 13.5C12.9429 13.5857 13.6286 13.8857 14.7857 14.4429C16.4571 15.3857 17.6571 16.5857 18.3429 18C18.7714 18.8571 18.9857 19.8 18.9857 20.8286C18.9857 22.0714 18.7714 23.1429 18.3 24.0429L18.2143 24.2143C17.2286 26.1429 15.6857 27.4714 13.5429 28.1143C11.9571 28.3286 11.1 28.4571 10.9714 28.4571C8.87143 28.4571 6.04286 27.6429 3.34286 26.4L2.14286 25.7571Z" fill="white"/>
</svg>
