<svg width="30" height="30" viewBox="0 0 30 30" fill="none" xmlns="http://www.w3.org/2000/svg">
<path fill-rule="evenodd" clip-rule="evenodd" d="M15.8491 0.351755C15.3801 -0.117252 14.6199 -0.117251 14.1509 0.351754L10.9659 3.53733L19.2232 11.8051L25.6088 18.1917C25.6546 18.2375 25.6989 18.2842 25.7417 18.3318L26.4547 19.0457L29.6483 15.8516C30.1172 15.3826 30.1172 14.6222 29.6483 14.1532L15.8491 0.351755ZM17.4951 13.4735L23.9855 19.9722C24.3781 20.444 24.3531 21.146 23.9107 21.5886L20.5891 24.9107C20.4173 24.5508 20.1825 24.2135 19.8845 23.9155L17.5489 21.5796C16.1421 20.1726 13.8613 20.1726 12.4545 21.5796L10.1189 23.9155C9.82001 24.2145 9.5846 24.5529 9.41271 24.9141L5.99013 21.4909C5.6109 21.0194 5.64011 20.3278 6.07774 19.8901L14.1451 11.8215C14.6141 11.3525 15.3743 11.3525 15.8433 11.8215L17.4951 13.4735ZM13.444 9.41735L9.2677 5.23576L0.351699 14.1532C-0.117233 14.6222 -0.117233 15.3826 0.351697 15.8516L3.6787 19.1791C3.85011 18.8222 4.08375 18.4876 4.3796 18.1917L12.447 10.123C12.7455 9.82444 13.0834 9.58921 13.444 9.41735ZM15.8508 23.278C15.3819 22.809 14.6216 22.809 14.1526 23.278L11.8171 25.6139C11.3482 26.0829 11.3482 26.8433 11.8171 27.3123L14.1526 29.6482C14.6216 30.1173 15.3819 30.1173 15.8508 29.6482L18.1863 27.3123C18.6553 26.8433 18.6553 26.0829 18.1863 25.6139L15.8508 23.278Z" fill="white"/>
</svg>
