<svg width="22" height="22" viewBox="0 0 22 22" fill="none" xmlns="http://www.w3.org/2000/svg">
<g clip-path="url(#clip0_3_803)">
<mask id="mask0_3_803" style="mask-type:alpha" maskUnits="userSpaceOnUse" x="0" y="0" width="23" height="22">
<path d="M11.0016 22C17.0776 22 22.0032 17.0751 22.0032 11C22.0032 4.92487 17.0776 0 11.0016 0C4.92558 0 0 4.92487 0 11C0 17.0751 4.92558 22 11.0016 22Z" fill="white"/>
</mask>
<g mask="url(#mask0_3_803)">
<path d="M11.0016 22C17.0776 22 22.0032 17.0751 22.0032 11C22.0032 4.92487 17.0776 0 11.0016 0C4.92558 0 0 4.92487 0 11C0 17.0751 4.92558 22 11.0016 22Z" fill="#DD4C4F"/>
<path d="M11.0016 22C17.0776 22 22.0032 17.0751 22.0032 11C22.0032 4.92487 17.0776 0 11.0016 0C4.92558 0 0 4.92487 0 11C0 17.0751 4.92558 22 11.0016 22Z" stroke="white" stroke-width="1.19391"/>
<path d="M16.7168 24.7957C14.7295 24.6597 9.30912 24.297 5.65509 22.6375C2.70005 21.2955 1.20813 18.5784 1.20813 18.5784C1.20813 18.5784 2.24789 13.6627 3.02146 11.7108C3.79312 9.76371 5.84587 6.88879 5.84587 6.88879C5.84587 6.88879 5.62416 4.66479 6.56071 4.66479C7.72247 4.66479 8.80149 5.83115 8.80149 5.83115C8.80149 5.83115 12.325 5.35031 13.4918 6.72993C14.8126 8.29163 17.8065 9.15364 17.8065 9.15364C17.8065 9.15364 18.878 8.83979 18.4365 10.5194C17.995 12.1989 16.5108 13.6754 13.5373 13.6775C12.4756 13.6783 12.1437 14.3273 12.1997 15.1732C12.3169 16.9422 14.069 19.652 14.069 19.652C14.069 19.652 17.5596 24.8534 16.7168 24.7957Z" fill="url(#paint0_linear_3_803)"/>
<g filter="url(#filter0_i_3_803)">
<path d="M16.7168 24.7957C14.7295 24.6597 9.30912 24.297 5.65509 22.6375C2.70005 21.2955 1.20813 18.5784 1.20813 18.5784C1.20813 18.5784 2.24789 13.6627 3.02146 11.7108C3.79312 9.76371 5.84587 6.88879 5.84587 6.88879C5.84587 6.88879 5.62416 4.66479 6.56071 4.66479C7.72247 4.66479 8.80149 5.83115 8.80149 5.83115C8.80149 5.83115 12.325 5.35031 13.4918 6.72993C14.8126 8.29163 17.8065 9.15364 17.8065 9.15364C17.8065 9.15364 18.878 8.83979 18.4365 10.5194C17.995 12.1989 16.5108 13.6754 13.5373 13.6775C12.4756 13.6783 12.1437 14.3273 12.1997 15.1732C12.3169 16.9422 14.069 19.652 14.069 19.652C14.069 19.652 17.5596 24.8534 16.7168 24.7957Z" fill="white"/>
</g>
<path fill-rule="evenodd" clipRule="evenodd" d="M10.3871 18.1306C10.148 15.8445 9.01714 14.6741 8.5228 13.9299C7.32581 12.1278 7.32581 10.8176 7.32581 10.8176C7.32581 10.8176 8.31543 12.4735 9.29819 13.063C10.2809 13.6526 13.2805 13.6967 13.2805 13.6967C13.2805 13.6967 12.2999 13.7442 12.2113 14.8625C12.1979 15.0309 12.2139 15.9311 12.7782 17.2179C13.3807 18.5917 15.6515 22.1098 15.6515 22.1098C15.6515 22.1098 13.9059 23.9963 13.3705 24.1534C12.7101 24.3471 10.0778 22.2071 10.0778 22.2071C10.0778 22.2071 10.5503 19.6905 10.3871 18.1306Z" fill="url(#paint1_linear_3_803)"/>
<mask id="mask1_3_803" style="mask-type:alpha" maskUnits="userSpaceOnUse" x="1" y="4" width="18" height="21">
<path d="M16.7168 24.7957C15.118 24.6863 8.56277 24.6053 5.45256 23.2598C1.57027 21.5802 1.20813 18.5784 1.20813 18.5784C1.20813 18.5784 2.24789 13.6627 3.02146 11.7108C3.79312 9.76371 5.84587 6.88879 5.84587 6.88879C5.84587 6.88879 5.62416 4.66479 6.56071 4.66479C7.72247 4.66479 8.80149 5.83115 8.80149 5.83115C8.80149 5.83115 12.325 5.35031 13.4918 6.72993C14.8126 8.29163 17.8065 9.15364 17.8065 9.15364C17.8065 9.15364 18.878 8.83979 18.4365 10.5194C17.995 12.1989 16.5108 13.6754 13.5373 13.6775C12.4756 13.6783 12.1437 14.3273 12.1997 15.1732C12.3169 16.9422 14.069 19.652 14.069 19.652C14.069 19.652 17.5596 24.8534 16.7168 24.7957Z" fill="white"/>
</mask>
<g mask="url(#mask1_3_803)">
<path d="M11.0016 22C17.0776 22 22.0032 17.0751 22.0032 11C22.0032 4.92487 17.0776 0 11.0016 0C4.92558 0 0 4.92487 0 11C0 17.0751 4.92558 22 11.0016 22Z" stroke="#BABABA" stroke-width="1.19391"/>
</g>
</g>
</g>
<defs>
<filter id="filter0_i_3_803" x="1.20813" y="4.66479" width="17.3351" height="20.1313" filterUnits="userSpaceOnUse" color-interpolation-filters="sRGB">
<feFlood flood-opacity="0" result="BackgroundImageFix"/>
<feBlend mode="normal" in="SourceGraphic" in2="BackgroundImageFix" result="shape"/>
<feColorMatrix in="SourceAlpha" type="matrix" values="0 0 0 0 0 0 0 0 0 0 0 0 0 0 0 0 0 0 127 0" result="hardAlpha"/>
<feOffset/>
<feGaussianBlur stdDeviation="2"/>
<feComposite in2="hardAlpha" operator="arithmetic" k2="-1" k3="1"/>
<feColorMatrix type="matrix" values="0 0 0 0 1 0 0 0 0 1 0 0 0 0 1 0 0 0 0.5 0"/>
<feBlend mode="normal" in2="shape" result="effect1_innerShadow_3_803"/>
</filter>
<linearGradient id="paint0_linear_3_803" x1="9.87566" y1="11.2653" x2="9.87566" y2="21.496" gradientUnits="userSpaceOnUse">
<stop stop-color="white"/>
<stop offset="1" stop-color="#F2F2F2"/>
</linearGradient>
<linearGradient id="paint1_linear_3_803" x1="11.4887" y1="5.76241" x2="11.4887" y2="24.1658" gradientUnits="userSpaceOnUse">
<stop stop-color="white"/>
<stop offset="0.264742" stop-color="#EBEBEB"/>
<stop offset="1" stop-color="#CBCBCB"/>
</linearGradient>
<clipPath id="clip0_3_803">
<rect width="22" height="22" fill="white"/>
</clipPath>
</defs>
</svg>
