<svg width="15" height="22" viewBox="0 0 15 22" fill="none" xmlns="http://www.w3.org/2000/svg">
<g clip-path="url(#clip0_3_792)">
<path d="M7.33331 10.9999C7.33331 10.0275 7.71962 9.09483 8.40725 8.40719C9.09489 7.71956 10.0275 7.33325 11 7.33325C11.9724 7.33325 12.9051 7.71956 13.5927 8.40719C14.2803 9.09483 14.6666 10.0275 14.6666 10.9999C14.6666 11.9724 14.2803 12.905 13.5927 13.5926C12.9051 14.2803 11.9724 14.6666 11 14.6666C10.0275 14.6666 9.09489 14.2803 8.40725 13.5926C7.71962 12.905 7.33331 11.9724 7.33331 10.9999Z" fill="#1ABCFE"/>
<path d="M0 18.3334C0 17.361 0.386308 16.4283 1.07394 15.7407C1.76158 15.0531 2.69421 14.6667 3.66667 14.6667H7.33333V18.3334C7.33333 19.3059 6.94703 20.2385 6.25939 20.9261C5.57176 21.6138 4.63913 22.0001 3.66667 22.0001C2.69421 22.0001 1.76158 21.6138 1.07394 20.9261C0.386308 20.2385 0 19.3059 0 18.3334H0Z" fill="#0ACF83"/>
<path d="M7.33331 0V7.33333H11C11.9724 7.33333 12.9051 6.94703 13.5927 6.25939C14.2803 5.57176 14.6666 4.63913 14.6666 3.66667C14.6666 2.69421 14.2803 1.76158 13.5927 1.07394C12.9051 0.386308 11.9724 0 11 0L7.33331 0Z" fill="#FF7262"/>
<path d="M0 3.66667C0 4.63913 0.386308 5.57176 1.07394 6.25939C1.76158 6.94703 2.69421 7.33333 3.66667 7.33333H7.33333V0H3.66667C2.69421 0 1.76158 0.386308 1.07394 1.07394C0.386308 1.76158 0 2.69421 0 3.66667H0Z" fill="#F24E1E"/>
<path d="M0 10.9999C0 11.9724 0.386308 12.905 1.07394 13.5926C1.76158 14.2803 2.69421 14.6666 3.66667 14.6666H7.33333V7.33325H3.66667C2.69421 7.33325 1.76158 7.71956 1.07394 8.40719C0.386308 9.09483 0 10.0275 0 10.9999H0Z" fill="#A259FF"/>
</g>
<defs>
<clipPath id="clip0_3_792">
<rect width="14.6667" height="22" fill="white"/>
</clipPath>
</defs>
</svg>
