<svg width="22" height="22" viewBox="0 0 22 22" fill="none" xmlns="http://www.w3.org/2000/svg">
<path d="M11 21.4407C16.7663 21.4407 21.4407 16.7662 21.4407 11C21.4407 5.23378 16.7663 0.559326 11 0.559326C5.23378 0.559326 0.559326 5.23378 0.559326 11C0.559326 16.7662 5.23378 21.4407 11 21.4407Z" fill="white"/>
<path d="M11 0C4.92486 0 0 4.92486 0 11C0 17.0752 4.92486 22 11 22C17.0752 22 22 17.0752 22 11C22 4.92486 17.0752 0 11 0ZM11 1.11864C16.4573 1.11864 20.8814 5.54268 20.8814 11C20.8814 16.4573 16.4573 20.8814 11 20.8814C5.54268 20.8814 1.11864 16.4573 1.11864 11C1.11864 5.54268 5.54268 1.11864 11 1.11864Z" fill="#4000BF"/>
<path fill-rule="evenodd" clip-rule="evenodd" d="M11.1243 3.16968C15.449 3.16968 18.9549 6.67549 18.9549 11.0002C18.9549 15.3249 15.449 18.8307 11.1243 18.8307C6.79966 18.8307 3.29382 15.3249 3.29382 11.0002C3.29382 9.94325 3.50322 8.93524 3.88279 8.01536C4.43702 8.7701 5.3308 9.26008 6.33902 9.26008C8.02085 9.26008 9.38423 7.8967 9.38423 6.21487C9.38423 5.20666 8.89425 4.31288 8.13945 3.75866C9.05939 3.37908 10.0674 3.16968 11.1243 3.16968Z" fill="url(#paint0_linear_3_694)"/>
<defs>
<linearGradient id="paint0_linear_3_694" x1="11.1243" y1="18.8307" x2="11.1243" y2="3.16968" gradientUnits="userSpaceOnUse">
<stop stop-color="#7400E1"/>
<stop offset="1" stop-color="#4000BF"/>
</linearGradient>
</defs>
</svg>
