<svg width="23" height="23" viewBox="0 0 23 23" fill="none" xmlns="http://www.w3.org/2000/svg">
<path d="M11.1684 0.113529C11.1211 0.11783 10.9706 0.132885 10.8351 0.143637C7.71036 0.425358 4.78348 2.11138 2.92972 4.70278C1.89746 6.14364 1.23724 7.77805 0.98778 9.50923C0.899608 10.1135 0.888855 10.292 0.888855 11.1114C0.888855 11.9307 0.899608 12.1092 0.98778 12.7135C1.58563 16.8447 4.52541 20.3157 8.51251 21.6017C9.22649 21.8318 9.97918 21.9888 10.8351 22.0834C11.1684 22.12 12.6093 22.12 12.9426 22.0834C14.42 21.92 15.6717 21.5544 16.9061 20.9243C17.0953 20.8275 17.1319 20.8017 17.1061 20.7802C17.0889 20.7673 16.2824 19.6856 15.3147 18.378L13.5555 16.0017L11.3512 12.7393C10.1383 10.9458 9.14047 9.47912 9.13187 9.47912C9.12326 9.47697 9.11466 10.9264 9.11036 12.6963C9.10391 15.7952 9.10176 15.92 9.06305 15.9931C9.00713 16.0985 8.96412 16.1415 8.8738 16.1888C8.80498 16.2232 8.74477 16.2297 8.42004 16.2297H8.048L7.94907 16.1673C7.88455 16.1264 7.83724 16.0727 7.80498 16.0103L7.75982 15.9135L7.76412 11.6017L7.77058 7.28772L7.83724 7.20385C7.87165 7.15869 7.94477 7.10063 7.99638 7.07267C8.08455 7.02966 8.11896 7.02536 8.49101 7.02536C8.92972 7.02536 9.00283 7.04256 9.11681 7.16729C9.14907 7.2017 10.3426 8.99955 11.7706 11.1651C13.1985 13.3307 15.1512 16.2877 16.1104 17.7393L17.8523 20.378L17.9405 20.32C18.7211 19.8125 19.5469 19.0899 20.2007 18.3372C21.5921 16.7393 22.4889 14.7909 22.7899 12.7135C22.8781 12.1092 22.8889 11.9307 22.8889 11.1114C22.8889 10.292 22.8781 10.1135 22.7899 9.50923C22.1921 5.37805 19.2523 1.90708 15.2652 0.621058C14.562 0.393101 13.8136 0.236111 12.9749 0.141487C12.7684 0.119982 11.3469 0.0963249 11.1684 0.113529ZM15.6717 6.76729C15.7749 6.81891 15.8587 6.91783 15.8889 7.02106C15.9061 7.07697 15.9104 8.27267 15.9061 10.9673L15.8996 14.834L15.2179 13.7888L14.534 12.7436V9.93288C14.534 8.11568 14.5426 7.09417 14.5555 7.04471C14.5899 6.92428 14.6652 6.82966 14.7684 6.77374C14.8566 6.72858 14.8889 6.72428 15.2265 6.72428C15.5448 6.72428 15.6007 6.72858 15.6717 6.76729Z" fill="white"/>
<path d="M17.7448 20.4261C17.6696 20.4734 17.6459 20.5056 17.7126 20.4691C17.7598 20.4412 17.8372 20.3831 17.8243 20.381C17.8178 20.381 17.7813 20.4025 17.7448 20.4261Z" fill="white"/>
<path d="M17.5965 20.5222C17.5575 20.5526 17.5575 20.5548 17.6052 20.5309C17.6313 20.5179 17.653 20.5027 17.653 20.4984C17.653 20.481 17.6421 20.4853 17.5965 20.5222Z" fill="white"/>
<path d="M17.4892 20.5866C17.4501 20.6169 17.4501 20.6191 17.4979 20.5952C17.5239 20.5822 17.5456 20.567 17.5456 20.5627C17.5456 20.5453 17.5347 20.5497 17.4892 20.5866Z" fill="white"/>
<path d="M17.3815 20.6509C17.3424 20.6813 17.3424 20.6834 17.3902 20.6596C17.4162 20.6466 17.4379 20.6314 17.4379 20.627C17.4379 20.6097 17.4271 20.614 17.3815 20.6509Z" fill="white"/>
<path d="M17.2179 20.738C17.1362 20.7809 17.1405 20.7981 17.2222 20.7573C17.2587 20.738 17.2866 20.7186 17.2866 20.7143C17.2866 20.6993 17.2845 20.7014 17.2179 20.738Z" fill="white"/>
</svg>
