<svg width="22" height="22" viewBox="0 0 22 22" fill="none" xmlns="http://www.w3.org/2000/svg">
<path d="M11 0.0545673C15.5375 0.0545673 19.2159 3.73294 19.2159 8.27045C19.2159 12.808 15.5375 16.4863 11 16.4863C6.46255 16.4863 2.78418 12.808 2.78418 8.27045C2.78418 3.73294 6.46255 0.0545673 11 0.0545673Z" fill="url(#paint0_radial_3_863)"/>
<path d="M9.59161 0.146925C7.89385 0.441715 6.46358 1.16231 5.27896 2.31963C4.0616 3.5097 3.30825 4.89631 2.94249 6.62683L2.81693 7.2164L2.80056 14.597L2.78418 21.9832H2.93703C3.02438 21.9832 3.30279 21.9559 3.5539 21.9286C5.69931 21.6665 7.52263 20.3673 8.51618 18.3966C8.76729 17.8943 8.94744 17.3157 9.073 16.5951C9.17672 15.9837 9.18218 15.7817 9.1658 12.5936L9.14943 9.23625L9.28044 8.90871C9.46059 8.46107 9.95736 7.96429 10.405 7.78415L10.7325 7.65313L13.7896 7.64767C15.471 7.64767 16.9449 7.62583 17.0596 7.604C17.5946 7.50027 18.1678 7.05263 18.397 6.55586C18.4626 6.41938 18.5499 6.15189 18.5881 5.97174C18.6482 5.67149 18.6427 5.58961 18.5554 5.25114C18.2824 4.24668 17.3216 2.85462 16.339 2.04122C15.2253 1.11864 13.9971 0.501764 12.6705 0.190598C11.9718 0.0322857 10.3886 0.00498962 9.59161 0.146925Z" fill="url(#paint1_radial_3_863)"/>
<defs>
<radialGradient id="paint0_radial_3_863" cx="0" cy="0" r="1" gradientUnits="userSpaceOnUse" gradientTransform="translate(15.7867 2.08474) scale(15.9371)">
<stop stop-color="white"/>
<stop offset="1" stop-color="white" stop-opacity="0.6"/>
</radialGradient>
<radialGradient id="paint1_radial_3_863" cx="0" cy="0" r="1" gradientUnits="userSpaceOnUse" gradientTransform="translate(-3.0643 19.719) rotate(-53.345) scale(7.82585 12.4374)">
<stop stop-color="white" stop-opacity="0.5"/>
<stop offset="1" stop-color="white"/>
</radialGradient>
</defs>
</svg>
