<svg width="22" height="22" viewBox="0 0 22 22" fill="none" xmlns="http://www.w3.org/2000/svg">
<path fill-rule="evenodd" clip-rule="evenodd" d="M5.5 14.2047V16.5L0 11L1.1484 9.8516L5.5 14.2047ZM7.79533 16.5H5.5L11 22L12.1484 20.8516L7.79533 16.5ZM20.8487 12.1484L21.9971 11L10.9971 0L9.8516 1.15133L14.2032 5.50293H11.5735L8.536 2.47133L7.3876 3.61973L9.27667 5.5088H7.95667V14.0463H16.4941V12.7263L18.3832 14.6153L19.5316 13.4669L16.4941 10.4295V7.79973L20.8487 12.1484ZM6.07347 4.93093L4.92213 6.07933L6.15413 7.31133L7.30253 6.16293L6.07347 4.93093ZM15.8415 14.6989L14.6931 15.8473L15.9251 17.0793L17.0735 15.9309L15.8415 14.6989ZM3.60947 7.39347L2.46107 8.54187L5.49853 11.5793V9.28253L3.60947 7.39347ZM12.7204 16.5044H10.4251L13.4625 19.5419L14.6109 18.3935L12.7204 16.5044Z" fill="white"/>
</svg>
