<svg width="200" height="170" viewBox="0 0 200 170" fill="none" xmlns="http://www.w3.org/2000/svg">
<path d="M170.82 0V30.78L156.28 34.53L147.17 23.56L142.36 33.02C132.44 30.32 118.78 28.58 99.9899 28.58C81.2 28.58 67.54 30.33 57.62 33.02L52.81 23.56L43.7 34.53L29.16 30.78V0C29.16 0 4.67 20.67 0 48.61L32.14 59.73C33.19 79.16 41.93 131.61 44.43 136.37C47.09 141.44 61.21 155.93 72.26 161.5C72.26 161.5 76.26 157.27 78.7 153.54C81.8 157.19 97.81 169.99 99.9999 169.99C102.19 169.99 118.2 157.19 121.3 153.54C123.74 157.27 127.74 161.5 127.74 161.5C138.79 155.93 152.91 141.44 155.57 136.37C158.07 131.61 166.81 79.16 167.86 59.73L200 48.61C195.31 20.67 170.82 0 170.82 0ZM153.78 93.36L132.03 95.3L133.94 121.97C133.94 121.97 120.71 132.92 99.9799 132.92C79.25 132.92 66.02 121.97 66.02 121.97L67.93 95.3L46.18 93.36L42.46 63.32L78.51 75.8L75.71 113.19C82.41 114.89 89.46 116.58 99.9899 116.58C110.52 116.58 117.56 114.89 124.26 113.19L121.46 75.8L157.51 63.32L153.79 93.36H153.78Z" fill="#4FF8D2"/>
</svg>
