<svg width="19" height="22" viewBox="0 0 19 22" fill="none" xmlns="http://www.w3.org/2000/svg">
<path fill-rule="evenodd" clipRule="evenodd" d="M1.14247 12.2382L1.16041 12.4715L2.45242 21.9821L5.82599 22H6.22077H8.39206L9.30723 9.24144C9.34312 8.77488 9.23545 8.7031 9.63023 8.66721L10.5992 22H16.5389C16.8798 20.3312 17.0054 18.3214 17.2567 16.6166C17.5258 14.7863 18.9614 4.50408 18.9614 3.14029C18.9793 2.11746 18.9614 1.07667 18.9614 0.0538314L14.6368 0.0179456C14.5291 2.18923 14.3317 4.39641 14.1702 6.5677L13.7575 12.31C13.7216 12.7586 13.8472 12.938 13.4883 13.0277L12.4655 0H6.472L6.18488 4.23491C6.16694 4.4323 6.20283 4.80913 6.07722 4.89886C6.18488 5.50897 5.70038 11 5.61066 12.5612C5.59271 12.9739 5.66449 12.8662 5.43121 13.0098C5.21588 12.8842 5.3056 13.261 5.23382 12.3279C5.21588 12.0587 5.19793 11.7896 5.16204 11.5383C5.03643 9.97716 4.44426 0.538333 4.30071 0.0358858L0.0119629 0C0.0119629 3.35563 -0.0957038 2.96085 0.334965 6.29853C0.604133 8.29038 0.90919 10.2643 1.14247 12.2382Z" fill="white"/>
</svg>
