<svg width="22" height="22" viewBox="0 0 22 22" fill="none" xmlns="http://www.w3.org/2000/svg">
<path d="M10.9983 0.659967C12.3942 0.659967 13.7471 0.933853 15.0241 1.47173C15.6379 1.73241 16.2286 2.0525 16.7797 2.42538C17.3274 2.79496 17.8422 3.22064 18.3108 3.68922C18.7794 4.15779 19.205 4.67257 19.5746 5.22034C19.9475 5.77141 20.2676 6.36538 20.5283 6.97585C21.0661 8.24959 21.34 9.60252 21.34 11.0017C21.34 12.4008 21.0661 13.7504 20.5283 15.0274C20.2676 15.6412 19.9475 16.2319 19.5746 16.783C19.205 17.3307 18.7794 17.8455 18.3108 18.3141C17.8422 18.7827 17.3274 19.2083 16.7797 19.5779C16.2286 19.9508 15.6346 20.2709 15.0241 20.5316C13.7504 21.0694 12.3975 21.3433 10.9983 21.3433C9.60252 21.3433 8.24959 21.0694 6.97255 20.5316C6.35878 20.2709 5.76811 19.9508 5.21704 19.5779C4.66927 19.2083 4.15449 18.7827 3.68592 18.3141C3.21734 17.8455 2.79166 17.3307 2.42208 16.783C2.0492 16.2319 1.72911 15.6379 1.46843 15.0274C0.933853 13.7504 0.659967 12.3942 0.659967 10.9984C0.659967 9.60252 0.933853 8.24959 1.47173 6.97255C1.73241 6.35878 2.0525 5.76811 2.42538 5.21704C2.79496 4.66927 3.22064 4.15449 3.68922 3.68592C4.15779 3.21734 4.67257 2.79166 5.22034 2.42208C5.77141 2.0492 6.36538 1.72911 6.97585 1.46843C8.24959 0.933853 9.60252 0.659967 10.9983 0.659967ZM10.9983 0C4.92335 0 0 4.92335 0 10.9984C0 17.0733 4.92335 21.9967 10.9983 21.9967C17.0733 21.9967 21.9967 17.0733 21.9967 10.9984C22 4.92335 17.0733 0 10.9983 0Z" fill="white"/>
<path d="M1.83472 10.9984C1.83472 14.6249 3.94331 17.763 7.00226 19.248L2.62998 7.26955C2.1185 8.408 1.83472 9.67183 1.83472 10.9984ZM17.1889 10.5364C17.1889 9.40455 16.783 8.61919 16.4332 8.00872C15.9679 7.25305 15.5323 6.61288 15.5323 5.86052C15.5323 5.01906 16.1725 4.2337 17.0701 4.2337C17.1097 4.2337 17.1493 4.237 17.1889 4.2403C15.5587 2.74547 13.3842 1.83472 10.9984 1.83472C7.79753 1.83472 4.97946 3.47804 3.33944 5.96612C3.55393 5.97271 3.75852 5.97602 3.93011 5.97602C4.88707 5.97602 6.372 5.86052 6.372 5.86052C6.86697 5.83082 6.92307 6.55679 6.43139 6.61618C6.43139 6.61618 5.93312 6.67558 5.38204 6.70198L8.72148 16.6312L10.7278 10.6156L9.29895 6.70198C8.80398 6.67228 8.3387 6.61618 8.3387 6.61618C7.84372 6.58648 7.90312 5.83082 8.3981 5.86052C8.3981 5.86052 9.91272 5.97602 10.8136 5.97602C11.7705 5.97602 13.2555 5.86052 13.2555 5.86052C13.7504 5.83082 13.8065 6.55679 13.3149 6.61618C13.3149 6.61618 12.8166 6.67558 12.2655 6.70198L15.5752 16.5553L16.5223 13.559C16.9414 12.249 17.1889 11.3218 17.1889 10.5364ZM11.1601 11.8002L8.408 19.7924C9.22966 20.0333 10.0975 20.1653 10.9984 20.1653C12.0642 20.1653 13.0905 19.9805 14.0408 19.6472C14.0177 19.6077 13.9946 19.5648 13.9748 19.5219L11.1601 11.8002ZM19.0434 6.60298C19.083 6.89337 19.1061 7.20685 19.1061 7.54674C19.1061 8.47729 18.9312 9.52334 18.4098 10.8301L15.6082 18.9213C18.3339 17.3341 20.1653 14.3807 20.1653 10.9984C20.1653 9.40455 19.7594 7.90642 19.0434 6.60298Z" fill="white"/>
</svg>
